<?xml version="1.0" encoding="UTF-8" standalone="no"?>
<svg width="20px" height="29px" viewBox="0 0 20 29" version="1.1" xmlns="http://www.w3.org/2000/svg" xmlns:xlink="http://www.w3.org/1999/xlink">
    <!-- Generator: Sketch 39.1 (31720) - http://www.bohemiancoding.com/sketch -->
    <title>Shape</title>
    <desc>Created with Sketch.</desc>
    <defs></defs>
    <g id="App" stroke="none" stroke-width="1" fill="none" fill-rule="evenodd">
        <g id="happy-fridays-list-empty@2x" transform="translate(-381.000000, -232.000000)" fill="#D4D7DB">
            <g id="Cards" transform="translate(340.000000, 196.000000)">
                <g id="Empty">
                    <g id="Album-Art" transform="translate(2.000000, 2.000000)">
                        <path d="M45.3656258,59.6158052 C47.2576712,59.6158052 48.7756281,58.0982083 48.7756281,56.2058028 C48.7756281,54.3331999 47.2580312,52.7958005 45.3656258,52.7958005 C43.4930228,52.7958005 41.975426,54.3331999 41.9556234,56.2058028 C41.975426,58.0982083 43.4933829,59.6158052 45.3656258,59.6158052 L45.3656258,59.6158052 Z M50.8847817,34.1298991 L57.6849839,37.3033507 C58.4144385,37.6579968 58.7294793,38.5253493 58.3946359,39.2742464 C58.0399899,40.0231436 57.1726374,40.3385445 56.4237402,39.9838985 L51.7326917,37.7958946 L51.7326917,40.8508909 L57.6853439,43.6300915 C58.4147985,43.9847375 58.7298394,44.8718926 58.394996,45.6009871 C58.04035,46.3498843 57.1729974,46.6652852 56.4241003,46.3106392 L51.7330518,44.1226354 L51.7330518,56.2050827 C51.7330518,56.3037355 51.7330518,56.4020283 51.7132492,56.5006811 C51.5753513,59.8710783 48.7961508,62.5714286 45.3663459,62.5714286 C41.8576907,62.5714286 39,59.7133778 39,56.2050827 C39,52.6967876 41.8580508,49.8387369 45.3663459,49.8387369 C46.6279495,49.8387369 47.7909004,50.1933829 48.7763482,50.8241847 L48.7763482,41.7974537 L48.7763482,35.470353 C48.7763482,35.2536049 48.8155933,35.0368567 48.9142461,34.8395511 C49.0323414,34.5831979 49.2098444,34.3862523 49.4265926,34.2483544 C49.4856402,34.2091094 49.5644904,34.1695042 49.6235381,34.1497017 C49.7221909,34.090654 49.8204837,34.0510489 49.9191365,34.0316063 C50.2341773,33.9721986 50.5693808,33.9920012 50.8847817,34.1298991 L50.8847817,34.1298991 Z" id="Shape"></path>
                    </g>
                </g>
            </g>
        </g>
    </g>
</svg>