<?xml version="1.0" encoding="UTF-8" standalone="no"?>
<svg width="21px" height="21px" viewBox="0 0 21 21" version="1.1" xmlns="http://www.w3.org/2000/svg" xmlns:xlink="http://www.w3.org/1999/xlink">
    <!-- Generator: Sketch 39.1 (31720) - http://www.bohemiancoding.com/sketch -->
    <title>Shape</title>
    <desc>Created with Sketch.</desc>
    <defs></defs>
    <g id="App" stroke="none" stroke-width="1" fill="none" fill-rule="evenodd">
        <g id="happy-fridays-home@2x" transform="translate(-101.000000, -510.000000)" fill="#FFFFFF">
            <g id="Button" transform="translate(80.000000, 497.000000)">
                <g id="Group" transform="translate(21.000000, 11.000000)">
                    <path d="M10.4995,2.034625 C4.718375,2.034625 0.031625,6.72125 0.031625,12.502375 C0.031625,18.284125 4.718375,22.9705 10.4995,22.9705 C16.280875,22.9705 20.967375,18.284125 20.967375,12.502375 C20.967375,6.721625 16.281125,2.035125 10.499375,2.035125 L10.4995,2.034625 Z M15.3,17.132125 C15.112,17.4405 14.71025,17.537125 14.402875,17.34925 C11.94475,15.846875 8.85075,15.5075 5.207,16.339875 C4.855875,16.420375 4.505875,16.20025 4.425875,15.84925 C4.3455,15.498125 4.564625,15.148125 4.916625,15.068125 C8.904125,14.1565 12.3245,14.548875 15.083625,16.234875 C15.391125,16.423625 15.488625,16.824875 15.299875,17.132375 L15.3,17.132125 Z M16.58125,14.28225 C16.3445,14.666375 15.84225,14.786875 15.458625,14.551 C12.6455,12.82175 8.355875,12.320875 5.02775,13.331125 C4.596125,13.4615 4.14025,13.21825 4.00925,12.787375 C3.87925,12.35575 4.122625,11.90075 4.5535,11.7695 C8.355125,10.616 13.081125,11.17475 16.312375,13.160375 C16.696125,13.396625 16.817375,13.899125 16.581125,14.282375 L16.58125,14.28225 Z M16.69125,11.31425 C13.317,9.310375 7.75125,9.126125 4.530125,10.10375 C4.012875,10.260625 3.465875,9.968625 3.309125,9.451375 C3.152375,8.933875 3.444125,8.38725 3.96175,8.23 C7.659375,7.1075 13.80625,7.324375 17.6905,9.63025 C18.15575,9.906375 18.308375,10.50725 18.032625,10.971875 C17.757625,11.437125 17.155125,11.5905 16.691375,11.31425 L16.69125,11.31425 Z" id="Shape"></path>
                </g>
            </g>
        </g>
    </g>
</svg>