<?xml version="1.0" encoding="UTF-8" standalone="no"?>
<svg width="44px" height="44px" viewBox="0 0 44 44" version="1.1" xmlns="http://www.w3.org/2000/svg" xmlns:xlink="http://www.w3.org/1999/xlink">
    <!-- Generator: Sketch 39.1 (31720) - http://www.bohemiancoding.com/sketch -->
    <title>Logo</title>
    <desc>Created with Sketch.</desc>
    <defs></defs>
    <g id="App" stroke="none" stroke-width="1" fill="none" fill-rule="evenodd">
        <g id="happy-fridays-loading@2x" transform="translate(-618.000000, -31.000000)">
            <g id="Logo" transform="translate(620.000000, 33.000000)">
                <circle id="Oval" stroke="#282E36" stroke-width="3" cx="20" cy="20" r="20"></circle>
                <path d="M17.7941972,31.3300909 C19.6862426,31.3300909 21.2041995,29.812494 21.2041995,27.9200885 C21.2041995,26.0474856 19.6866027,24.5100862 17.7941972,24.5100862 C15.9215943,24.5100862 14.4039974,26.0474856 14.3841948,27.9200885 C14.4039974,29.812494 15.9219543,31.3300909 17.7941972,31.3300909 L17.7941972,31.3300909 Z M23.3133531,5.8441848 L30.1135553,9.01763646 C30.8430099,9.37228247 31.1580508,10.239635 30.8232073,10.9885321 C30.4685613,11.7374293 29.6012088,12.0528302 28.8523117,11.6981842 L24.1612631,9.51018036 L24.1612631,12.5651767 L30.1139153,15.3443772 C30.84337,15.6990232 31.1584108,16.5861783 30.8235674,17.3152728 C30.4689214,18.06417 29.6015689,18.3795709 28.8526717,18.0249249 L24.1616232,15.8369211 L24.1616232,27.9193684 C24.1616232,28.0180212 24.1616232,28.116314 24.1418206,28.2149668 C24.0039227,31.585364 21.2247222,34.2857143 17.7949173,34.2857143 C14.2862621,34.2857143 11.4285714,31.4276635 11.4285714,27.9193684 C11.4285714,24.4110733 14.2866222,21.5530226 17.7949173,21.5530226 C19.0565209,21.5530226 20.2194718,21.9076686 21.2049196,22.5384704 L21.2049196,13.5117394 L21.2049196,7.18463868 C21.2049196,6.96789057 21.2441647,6.75114245 21.3428175,6.55383685 C21.4609128,6.2974836 21.6384159,6.10053805 21.855164,5.96264016 C21.9142116,5.92339507 21.9930619,5.88378993 22.0521095,5.86398737 C22.1507623,5.80493971 22.2490551,5.76533457 22.3477079,5.74589205 C22.6627487,5.68648434 22.9979522,5.70628691 23.3133531,5.8441848 L23.3133531,5.8441848 Z" id="Shape" fill="#282E36"></path>
            </g>
        </g>
    </g>
</svg>