<?xml version="1.0" encoding="UTF-8"?>
<svg width="215px" height="40px" viewBox="0 0 215 40" version="1.1" xmlns="http://www.w3.org/2000/svg" xmlns:xlink="http://www.w3.org/1999/xlink">
    <!-- Generator: Sketch 39.1 (31720) - http://www.bohemiancoding.com/sketch -->
    <title>Logo</title>
    <desc>Created with Sketch.</desc>
    <defs></defs>
    <g id="App" stroke="none" stroke-width="1" fill="none" fill-rule="evenodd">
        <g id="happy-fridays-home@2x" transform="translate(-80.000000, -55.000000)" fill="#FFFFFF">
            <g id="Logo" transform="translate(80.000000, 55.000000)">
                <path d="M8.91187607,35.8621272 C11.5607397,35.8621272 13.6858794,33.7374916 13.6858794,31.0881239 C13.6858794,28.4664798 11.5612437,26.3141206 8.91187607,26.3141206 C6.29023198,26.3141206 4.16559637,28.4664798 4.13787277,31.0881239 C4.16559637,33.7374916 6.29073605,35.8621272 8.91187607,35.8621272 L8.91187607,35.8621272 Z M16.6386944,0.181858715 L26.1589774,4.62469105 C27.1802139,5.12119546 27.6212711,6.33548898 27.1524903,7.38394498 C26.6559859,8.43240099 25.4416923,8.87396227 24.3932363,8.37745786 L17.8257684,5.3142525 L17.8257684,9.59124732 L26.1594815,13.4821281 C27.1807179,13.9786325 27.6217751,15.2206496 27.1529943,16.241382 C26.6564899,17.289838 25.4421964,17.7313993 24.3937404,17.2348949 L17.8262725,14.1716895 L17.8262725,31.0871158 C17.8262725,31.2252297 17.8262725,31.3628396 17.7985489,31.5009535 C17.6054918,36.2195096 13.7146111,40 8.9128842,40 C4.00076699,40 0,35.9987289 0,31.0871158 C0,26.1755027 4.00127105,22.1742316 8.9128842,22.1742316 C10.6791293,22.1742316 12.3072605,22.670736 13.6868875,23.5538586 L13.6868875,10.9164352 L13.6868875,2.05849416 C13.6868875,1.75504679 13.7418306,1.45159943 13.8799445,1.1753716 C14.045278,0.816477039 14.2937822,0.540753271 14.5972296,0.347696228 C14.6798963,0.2927531 14.7902866,0.237305908 14.8729533,0.209582311 C15.0110673,0.126915588 15.1486771,0.071468395 15.286791,0.044248864 C15.7278482,-0.0389219251 16.1971331,-0.0111983287 16.6386944,0.181858715 L16.6386944,0.181858715 Z" id="Shape"></path>
                <path d="M58.648,29.8045026 L58.648,11.1285026 L54.644,11.1285026 L54.644,18.4645026 L45.824,18.4645026 L45.824,11.1285026 L41.848,11.1285026 L41.848,29.8045026 L45.824,29.8045026 L45.824,21.9645026 L54.644,21.9645026 L54.644,29.8045026 L58.648,29.8045026 Z M73.908,29.8045026 L73.908,21.0685026 C73.908,17.1765026 71.08,15.9445026 68,15.9445026 C65.872,15.9445026 63.744,16.6165026 62.092,18.0725026 L63.436,20.4525026 C64.584,19.3885026 65.928,18.8565026 67.384,18.8565026 C69.176,18.8565026 70.352,19.7525026 70.352,21.1245026 L70.352,22.9445026 C69.456,21.8805026 67.86,21.2925026 66.068,21.2925026 C63.912,21.2925026 61.364,22.4965026 61.364,25.6605026 C61.364,28.6845026 63.912,30.1405026 66.068,30.1405026 C67.832,30.1405026 69.428,29.4965026 70.352,28.4045026 L70.352,29.8045026 L73.908,29.8045026 Z M67.496,27.7325026 C66.096,27.7325026 64.948,27.0045026 64.948,25.7445026 C64.948,24.4285026 66.096,23.7005026 67.496,23.7005026 C68.644,23.7005026 69.764,24.0925026 70.352,24.8765026 L70.352,26.5565026 C69.764,27.3405026 68.644,27.7325026 67.496,27.7325026 L67.496,27.7325026 Z M85.164,30.1405026 C88.636,30.1405026 91.156,27.5365026 91.156,23.0285026 C91.156,18.5205026 88.636,15.9445026 85.164,15.9445026 C83.512,15.9445026 82.028,16.6725026 80.992,17.9885026 L80.992,16.2805026 L77.436,16.2805026 L77.436,34.9565026 L80.992,34.9565026 L80.992,28.0685026 C82.084,29.4685026 83.568,30.1405026 85.164,30.1405026 L85.164,30.1405026 Z M84.044,26.9765026 C82.896,26.9765026 81.58,26.2765026 80.992,25.4365026 L80.992,20.6485026 C81.58,19.7805026 82.896,19.1085026 84.044,19.1085026 C86.088,19.1085026 87.46,20.7045026 87.46,23.0285026 C87.46,25.3805026 86.088,26.9765026 84.044,26.9765026 L84.044,26.9765026 Z M101.488,30.1405026 C104.96,30.1405026 107.48,27.5365026 107.48,23.0285026 C107.48,18.5205026 104.96,15.9445026 101.488,15.9445026 C99.836,15.9445026 98.352,16.6725026 97.316,17.9885026 L97.316,16.2805026 L93.76,16.2805026 L93.76,34.9565026 L97.316,34.9565026 L97.316,28.0685026 C98.408,29.4685026 99.892,30.1405026 101.488,30.1405026 L101.488,30.1405026 Z M100.368,26.9765026 C99.22,26.9765026 97.904,26.2765026 97.316,25.4365026 L97.316,20.6485026 C97.904,19.7805026 99.22,19.1085026 100.368,19.1085026 C102.412,19.1085026 103.784,20.7045026 103.784,23.0285026 C103.784,25.3805026 102.412,26.9765026 100.368,26.9765026 L100.368,26.9765026 Z M109.608,35.0965026 C110.056,35.2085026 110.952,35.2925026 111.372,35.2925026 C113.696,35.2365026 115.488,34.5645026 116.496,32.0165026 L122.852,16.2805026 L119.016,16.2805026 L115.488,25.6885026 L111.96,16.2805026 L108.152,16.2805026 L113.64,30.0005026 L113.136,31.1485026 C112.8,31.8765026 112.184,32.1285026 111.26,32.1285026 C110.924,32.1285026 110.448,32.0445026 110.14,31.9045026 L109.608,35.0965026 Z M128.508,29.8045026 L128.508,22.0765026 L137.552,22.0765026 L137.552,18.5765026 L128.508,18.5765026 L128.508,14.6285026 L137.748,14.6285026 L137.748,11.1285026 L124.532,11.1285026 L124.532,29.8045026 L128.508,29.8045026 Z M143.992,29.8045026 L143.992,20.8725026 C144.58,20.0045026 146.148,19.3325026 147.324,19.3325026 C147.716,19.3325026 148.052,19.3605026 148.304,19.4165026 L148.304,15.9445026 C146.624,15.9445026 144.944,16.9245026 143.992,18.1285026 L143.992,16.2805026 L140.436,16.2805026 L140.436,29.8045026 L143.992,29.8045026 Z M152.28,14.8245026 C153.456,14.8245026 154.408,13.8725026 154.408,12.6965026 C154.408,11.5205026 153.456,10.5965026 152.28,10.5965026 C151.132,10.5965026 150.152,11.5205026 150.152,12.6965026 C150.152,13.8725026 151.132,14.8245026 152.28,14.8245026 L152.28,14.8245026 Z M154.072,29.8045026 L154.072,16.2805026 L150.516,16.2805026 L150.516,29.8045026 L154.072,29.8045026 Z M170.48,29.8045026 L170.48,11.1285026 L166.896,11.1285026 L166.896,18.0165026 C165.832,16.6445026 164.32,15.9445026 162.724,15.9445026 C159.28,15.9445026 156.732,18.6325026 156.732,23.0565026 C156.732,27.5645026 159.308,30.1405026 162.724,30.1405026 C164.348,30.1405026 165.832,29.4125026 166.896,28.0685026 L166.896,29.8045026 L170.48,29.8045026 Z M163.816,26.9765026 C161.8,26.9765026 160.4,25.3805026 160.4,23.0565026 C160.4,20.7045026 161.8,19.1085026 163.816,19.1085026 C165.02,19.1085026 166.308,19.7525026 166.896,20.6485026 L166.896,25.4365026 C166.308,26.3325026 165.02,26.9765026 163.816,26.9765026 L163.816,26.9765026 Z M185.684,29.8045026 L185.684,21.0685026 C185.684,17.1765026 182.856,15.9445026 179.776,15.9445026 C177.648,15.9445026 175.52,16.6165026 173.868,18.0725026 L175.212,20.4525026 C176.36,19.3885026 177.704,18.8565026 179.16,18.8565026 C180.952,18.8565026 182.128,19.7525026 182.128,21.1245026 L182.128,22.9445026 C181.232,21.8805026 179.636,21.2925026 177.844,21.2925026 C175.688,21.2925026 173.14,22.4965026 173.14,25.6605026 C173.14,28.6845026 175.688,30.1405026 177.844,30.1405026 C179.608,30.1405026 181.204,29.4965026 182.128,28.4045026 L182.128,29.8045026 L185.684,29.8045026 Z M179.272,27.7325026 C177.872,27.7325026 176.724,27.0045026 176.724,25.7445026 C176.724,24.4285026 177.872,23.7005026 179.272,23.7005026 C180.42,23.7005026 181.54,24.0925026 182.128,24.8765026 L182.128,26.5565026 C181.54,27.3405026 180.42,27.7325026 179.272,27.7325026 L179.272,27.7325026 Z M188.736,35.0965026 C189.184,35.2085026 190.08,35.2925026 190.5,35.2925026 C192.824,35.2365026 194.616,34.5645026 195.624,32.0165026 L201.98,16.2805026 L198.144,16.2805026 L194.616,25.6885026 L191.088,16.2805026 L187.28,16.2805026 L192.768,30.0005026 L192.264,31.1485026 C191.928,31.8765026 191.312,32.1285026 190.388,32.1285026 C190.052,32.1285026 189.576,32.0445026 189.268,31.9045026 L188.736,35.0965026 Z M208.448,30.1405026 C212.2,30.1405026 214.3,28.2645026 214.3,25.8005026 C214.3,20.3405026 206.292,22.0205026 206.292,20.0045026 C206.292,19.2485026 207.132,18.6605026 208.42,18.6605026 C210.072,18.6605026 211.612,19.3605026 212.424,20.2285026 L213.852,17.7925026 C212.508,16.7285026 210.688,15.9445026 208.392,15.9445026 C204.836,15.9445026 202.848,17.9325026 202.848,20.2005026 C202.848,25.5205026 210.884,23.7005026 210.884,25.9405026 C210.884,26.7805026 210.156,27.3965026 208.616,27.3965026 C206.936,27.3965026 204.92,26.4725026 203.94,25.5485026 L202.4,28.0405026 C203.828,29.3565026 206.096,30.1405026 208.448,30.1405026 L208.448,30.1405026 Z" id="HappyFridays"></path>
            </g>
        </g>
    </g>
</svg>